<svg xmlns="http://www.w3.org/2000/svg" xmlns:xlink="http://www.w3.org/1999/xlink" xmlns:lucid="lucid" width="929" height="579.62"><g transform="translate(-634.0000629252235 -384.381797269291)" lucid:page-tab-id="0_0"><path d="M680 427.92a6 6 0 0 1 6-6h148a6 6 0 0 1 6 6v111.2a6 6 0 0 1-6 6H686a6 6 0 0 1-6-6z" stroke="#cbc2a3" stroke-width="2" fill="#f7f4e4"/><use xlink:href="#a" transform="matrix(1,0,0,1,692,433.91513060262434) translate(22.973333333333336 28.45833333333333)"/><use xlink:href="#b" transform="matrix(1,0,0,1,692,433.91513060262434) translate(15.440000000000005 61.52499999999999)"/><use xlink:href="#c" transform="matrix(1,0,0,1,692,433.91513060262434) translate(74.64 61.52499999999999)"/><use xlink:href="#d" transform="matrix(1,0,0,1,692,433.91513060262434) translate(104.07999999999998 61.52499999999999)"/><use xlink:href="#e" transform="matrix(1,0,0,1,692,433.91513060262434) translate(21.626666666666665 94.59166666666665)"/><use xlink:href="#f" transform="matrix(1,0,0,1,692,433.91513060262434) translate(52.879999999999995 94.59166666666665)"/><path d="M841.5 483.5h285.99" stroke="#3a414a" fill="none"/><path d="M841.5 484h-.5v-.96h.5z" stroke="#3a414a" stroke-width=".05" fill="#3a414a"/><path d="M1142.26 483.5l-14.27 4.65v-9.27z" stroke="#3a414a" fill="#3a414a"/><path d="M1144.88 411.38a6 6 0 0 1 6-6h148a6 6 0 0 1 6 6v144.27a6 6 0 0 1-6 6h-148a6 6 0 0 1-6-6z" stroke="#cbc2a3" stroke-width="2" fill="#f7f4e4"/><use xlink:href="#g" transform="matrix(1,0,0,1,1156.878745370661,417.381797269291) translate(38.626666666666665 29.48958333333333)"/><use xlink:href="#h" transform="matrix(1,0,0,1,1156.878745370661,417.381797269291) translate(19.333333333333336 62.55624999999999)"/><use xlink:href="#i" transform="matrix(1,0,0,1,1156.878745370661,417.381797269291) translate(97.86666666666667 62.55624999999999)"/><use xlink:href="#j" transform="matrix(1,0,0,1,1156.878745370661,417.381797269291) translate(13.079999999999998 95.62291666666665)"/><use xlink:href="#k" transform="matrix(1,0,0,1,1156.878745370661,417.381797269291) translate(77.93333333333334 95.62291666666665)"/><use xlink:href="#l" transform="matrix(1,0,0,1,1156.878745370661,417.381797269291) translate(37.69333333333334 128.6895833333333)"/><path d="M1306.38 483.5h58.24" stroke="#3a414a" fill="none"/><path d="M1306.4 484h-.52v-.96h.5z" stroke="#3a414a" stroke-width=".05" fill="#3a414a"/><path d="M1379.38 483.5l-14.26 4.65v-9.27z" stroke="#3a414a" fill="#3a414a"/><path d="M1382 411.38a6 6 0 0 1 6-6h148a6 6 0 0 1 6 6v144.27a6 6 0 0 1-6 6h-148a6 6 0 0 1-6-6z" stroke="#cbc2a3" stroke-width="2" fill="#f7f4e4"/><use xlink:href="#g" transform="matrix(1,0,0,1,1394,417.381797269291) translate(38.626666666666665 29.48958333333333)"/><use xlink:href="#h" transform="matrix(1,0,0,1,1394,417.381797269291) translate(19.333333333333336 62.55624999999999)"/><use xlink:href="#i" transform="matrix(1,0,0,1,1394,417.381797269291) translate(97.86666666666667 62.55624999999999)"/><use xlink:href="#j" transform="matrix(1,0,0,1,1394,417.381797269291) translate(13.079999999999998 95.62291666666665)"/><use xlink:href="#k" transform="matrix(1,0,0,1,1394,417.381797269291) translate(77.93333333333334 95.62291666666665)"/><use xlink:href="#m" transform="matrix(1,0,0,1,1394,417.381797269291) translate(2.1466666666666754 128.6895833333333)"/><path d="M1224.88 563.15v41.38" stroke="#3a414a" fill="none"/><path d="M1225.35 563.16h-.95v-.5h.95z" stroke="#3a414a" stroke-width=".05" fill="#3a414a"/><path d="M1224.88 619.3l-4.64-14.27h9.27z" stroke="#3a414a" fill="#3a414a"/><path d="M1144.88 627.9a6 6 0 0 1 6-6h148a6 6 0 0 1 6 6v111.22a6 6 0 0 1-6 6h-148a6 6 0 0 1-6-6z" stroke="#cbc2a3" stroke-width="2" fill="#f7f4e4"/><use xlink:href="#n" transform="matrix(1,0,0,1,1156.878745370661,633.9151306026243) translate(37.053333333333335 28.45833333333333)"/><use xlink:href="#o" transform="matrix(1,0,0,1,1156.878745370661,633.9151306026243) translate(10.799999999999997 61.52499999999999)"/><use xlink:href="#i" transform="matrix(1,0,0,1,1156.878745370661,633.9151306026243) translate(106.4 61.52499999999999)"/><use xlink:href="#p" transform="matrix(1,0,0,1,1156.878745370661,633.9151306026243) translate(29.693333333333335 94.59166666666665)"/><path d="M1462 563.15v28.57a.06.06 0 0 1-.06.06.06.06 0 0 0-.06.06v12.7" stroke="#3a414a" fill="none"/><path d="M1462.47 563.16h-.94v-.5h.94z" stroke="#3a414a" stroke-width=".05" fill="#3a414a"/><path d="M1461.88 619.3l-4.64-14.27h9.27z" stroke="#3a414a" fill="#3a414a"/><path d="M1381.88 627.9a6 6 0 0 1 6-6h148a6 6 0 0 1 6 6v111.22a6 6 0 0 1-6 6h-148a6 6 0 0 1-6-6z" stroke="#cbc2a3" stroke-width="2" fill="#f7f4e4"/><use xlink:href="#n" transform="matrix(1,0,0,1,1393.878745370661,633.9151306026243) translate(37.053333333333335 28.45833333333333)"/><use xlink:href="#o" transform="matrix(1,0,0,1,1393.878745370661,633.9151306026243) translate(10.799999999999997 61.52499999999999)"/><use xlink:href="#i" transform="matrix(1,0,0,1,1393.878745370661,633.9151306026243) translate(106.4 61.52499999999999)"/><use xlink:href="#p" transform="matrix(1,0,0,1,1393.878745370661,633.9151306026243) translate(29.693333333333335 94.59166666666665)"/><path d="M841.5 483.5h55.12" stroke="#3a414a" fill="none"/><path d="M841.5 484h-.5v-.96h.5z" stroke="#3a414a" stroke-width=".05" fill="#3a414a"/><path d="M911.38 483.5l-14.26 4.65v-9.27z" stroke="#3a414a" fill="#3a414a"/><path d="M914 427.92a6 6 0 0 1 6-6h148a6 6 0 0 1 6 6v111.2a6 6 0 0 1-6 6H920a6 6 0 0 1-6-6z" stroke="#cbc2a3" stroke-width="2" fill="#f7f4e4"/><g><use xlink:href="#q" transform="matrix(1,0,0,1,926,433.91513060262434) translate(26.253333333333337 28.45833333333333)"/><use xlink:href="#h" transform="matrix(1,0,0,1,926,433.91513060262434) translate(19.333333333333336 61.52499999999999)"/><use xlink:href="#i" transform="matrix(1,0,0,1,926,433.91513060262434) translate(97.86666666666667 61.52499999999999)"/><use xlink:href="#r" transform="matrix(1,0,0,1,926,433.91513060262434) translate(39.306666666666665 94.59166666666665)"/></g><path d="M1147.9 854.2a10.35 10.35 0 0 1 0-10.4l33.97-58.6a10.4 10.4 0 0 1 9-5.2h68a10.4 10.4 0 0 1 9.02 5.2l33.97 58.6a10.35 10.35 0 0 1 0 10.4l-33.98 58.6a10.4 10.4 0 0 1-9.02 5.2h-68a10.4 10.4 0 0 1-9-5.2z" stroke="#ff8f8f" stroke-width="2" fill="#ffd9d9"/><g><use xlink:href="#s" transform="matrix(1,0,0,1,1149.878745370661,785) translate(48.05833333333333 57.33333333333333)"/><use xlink:href="#t" transform="matrix(1,0,0,1,1149.878745370661,785) translate(34.27166666666667 90.39999999999999)"/></g><path d="M1385 854.2a10.35 10.35 0 0 1 0-10.4l34-58.6a10.4 10.4 0 0 1 9-5.2h68a10.4 10.4 0 0 1 9 5.2l34 58.6a10.35 10.35 0 0 1 0 10.4l-34 58.6a10.4 10.4 0 0 1-9 5.2h-68a10.4 10.4 0 0 1-9-5.2z" stroke="#ff8f8f" stroke-width="2" fill="#ffd9d9"/><g><use xlink:href="#u" transform="matrix(1,0,0,1,1387,785) translate(16.178333333333335 73.33333333333333)"/><use xlink:href="#v" transform="matrix(1,0,0,1,1387,785) translate(77.53833333333334 73.33333333333333)"/></g><path d="M1462 921v32a6 6 0 0 1-6 6H645a6 6 0 0 1-6-6V503.9a6 6 0 0 1 6-6h11.26" stroke="#e81313" stroke-width="4" fill="none"/><path d="M1463.97 921.05h-3.94V919h3.94z" stroke="#e81313" stroke-width=".05" fill="#e81313"/><path d="M672.53 497.9l-14.27 4.62v-9.27z" stroke="#e81313" stroke-width="4" fill="#e81313"/><path d="M921.75 744c-13.26 0-24-10.75-24-24 0-10.6 6.5-19.55 16.58-22.83-.6-31.17 39.4-37.17 55.4-25.17 8-18 48-12 48 6 24-6 48 18 32 48 16 24 0 54-32 42-8 15.6-40 15.6-48 0-16 12-48 6-48-24z" stroke="#febed9" stroke-width="2" fill="#fff0f0"/><g><use xlink:href="#w" transform="matrix(1,0,0,1,902.7454967790641,665) translate(50.144999999999996 45.95833333333333)"/><use xlink:href="#t" transform="matrix(1,0,0,1,902.7454967790641,665) translate(42.771666666666675 79.02499999999999)"/></g><path d="M994 658.26v-89.4" stroke="#e81313" stroke-width="4" fill="none"/><path d="M995.98 660.42l-.66-.1-3.3-.15v-1.96H996z" stroke="#e81313" stroke-width=".05" fill="#e81313"/><path d="M994 552.6l4.63 14.25h-9.26z" stroke="#e81313" stroke-width="4" fill="#e81313"/><path d="M1143 849H766a6 6 0 0 1-6-6V570.97" stroke="#e81313" stroke-width="5" fill="none"/><path d="M1145.74 846.63l-.2 1.18-.05 1.2.05 1.2.2 1.17.02.1h-2.84v-4.95h2.84z" stroke="#e81313" stroke-width=".05" fill="#e81313"/><path d="M760 554.2l4.63 14.27h-9.26z" stroke="#e81313" stroke-width="5" fill="#e81313"/><defs><path d="M10 0l251-669h105L616 0H516l-51-146H161L110 0H10zm180-227h246L313-574" id="x"/><path d="M285-432c-89 1-131 66-131 163V0H70v-496h62l22 75c30-48 78-85 160-83 119-2 164 76 164 190V0h-84v-289c0-84-20-146-109-143" id="y"/><path d="M378-68c-31 51-85 81-169 80C113 9 38-35 38-131c0-94 73-122 158-145 50-12 110-23 177-30 2-82-30-131-112-131-59-1-100 29-110 77l-81-24c23-72 98-120 190-120 139 1 198 62 198 201 0 106-2 221 17 303h-77zM162-188c-65 43-17 139 65 133 106-8 163-63 153-184-85 10-165 18-218 51" id="z"/><path d="M154-138c-3 59 12 66 70 64V0C114 8 70-14 70-124v-543h84v529" id="A"/><path d="M37 161V87c53-1 102 6 119-29 8-12 16-32 23-57L0-495h93l122 382 122-382h92L253 22c-28 102-74 152-216 139" id="B"/><path d="M40 0v-74l285-348H49v-74h371v74L135-74h295V0H40" id="C"/><path d="M478-87C442-31 374 13 281 12 124 9 38-92 38-247s90-257 241-257c158 0 234 116 231 279H128c2 101 61 157 153 163 55 1 92-19 116-49zm-57-205c0-105-107-170-212-126-46 20-76 62-80 126h292" id="D"/><g id="a"><use transform="matrix(0.026666666666666665,0,0,0.026666666666666665,0,0)" xlink:href="#x"/><use transform="matrix(0.026666666666666665,0,0,0.026666666666666665,16.69333333333333,0)" xlink:href="#y"/><use transform="matrix(0.026666666666666665,0,0,0.026666666666666665,31.25333333333333,0)" xlink:href="#z"/><use transform="matrix(0.026666666666666665,0,0,0.026666666666666665,45.279999999999994,0)" xlink:href="#A"/><use transform="matrix(0.026666666666666665,0,0,0.026666666666666665,51.97333333333333,0)" xlink:href="#B"/><use transform="matrix(0.026666666666666665,0,0,0.026666666666666665,63.41333333333333,0)" xlink:href="#C"/><use transform="matrix(0.026666666666666665,0,0,0.026666666666666665,75.67999999999999,0)" xlink:href="#D"/></g><path d="M412-75c-29 52-81 91-161 87C113 6 40-97 38-246c2-149 75-252 213-258 80-4 132 36 161 86v-250h84v481c1 63 3 123 17 187h-79zM132-246c-2 104 46 184 141 186 95-2 143-82 141-186 2-106-46-186-141-186s-143 81-141 186" id="E"/><path d="M188-138c2 51 0 63 51 64h45V0h-63c-93 4-117-31-117-124v-305H20v-67h84v-125h84v125h96v67h-96v291" id="F"/><g id="b"><use transform="matrix(0.026666666666666665,0,0,0.026666666666666665,0,0)" xlink:href="#E"/><use transform="matrix(0.026666666666666665,0,0,0.026666666666666665,15.04,0)" xlink:href="#z"/><use transform="matrix(0.026666666666666665,0,0,0.026666666666666665,29.066666666666666,0)" xlink:href="#F"/><use transform="matrix(0.026666666666666665,0,0,0.026666666666666665,37.70666666666666,0)" xlink:href="#z"/></g><path d="M219-653c1 34-30 64-63 63-33 1-63-30-62-63-1-33 29-63 62-62 34-1 64 28 63 62zM114 0v-429H45v-67h153V0h-84" id="G"/><g id="c"><use transform="matrix(0.026666666666666665,0,0,0.026666666666666665,0,0)" xlink:href="#G"/><use transform="matrix(0.026666666666666665,0,0,0.026666666666666665,7.413333333333333,0)" xlink:href="#y"/></g><path d="M566-476c-1 124-66 173-185 188L588 0H473L270-281H170V0H76v-668c224 6 498-44 490 192zm-96 2c0-145-164-110-300-115v229c135-5 300 30 300-114" id="H"/><use transform="matrix(0.026666666666666665,0,0,0.026666666666666665,0,0)" xlink:href="#H" id="d"/><path d="M514-246c0 160-87 258-238 258S38-87 38-246s87-258 238-258 238 98 238 258zm-386 0c0 108 52 184 148 184 97 0 148-76 148-184s-51-184-148-184c-96 0-148 76-148 184" id="I"/><path d="M335-417c-136-2-180 71-181 204V0H70v-496h61l27 92c33-56 90-100 177-100v87" id="J"/><g id="e"><use transform="matrix(0.026666666666666665,0,0,0.026666666666666665,0,0)" xlink:href="#I"/><use transform="matrix(0.026666666666666665,0,0,0.026666666666666665,14.719999999999999,0)" xlink:href="#J"/></g><path d="M76 0v-668h453v81H170v203h265v81H170v222h359V0H76" id="K"/><path d="M0 0l181-255L9-496h99l122 172 123-172h99L280-255 461 0h-99L230-185 99 0H0" id="L"/><path d="M467-99C433-40 361 13 269 12 119 7 38-94 38-246c0-153 87-254 240-258 90-2 156 54 187 112l-77 28c-19-37-62-66-116-66-97 6-143 76-143 183 1 106 46 179 143 185 56 1 98-30 118-65" id="M"/><g id="f"><use transform="matrix(0.026666666666666665,0,0,0.026666666666666665,0,0)" xlink:href="#K"/><use transform="matrix(0.026666666666666665,0,0,0.026666666666666665,15.12,0)" xlink:href="#L"/><use transform="matrix(0.026666666666666665,0,0,0.026666666666666665,27.41333333333333,0)" xlink:href="#M"/><use transform="matrix(0.026666666666666665,0,0,0.026666666666666665,40.74666666666667,0)" xlink:href="#D"/><use transform="matrix(0.026666666666666665,0,0,0.026666666666666665,55.12000000000001,0)" xlink:href="#A"/></g><path d="M618-139C576-47 480 12 353 12 151 12 50-131 50-335c0-206 109-345 311-345 121 0 214 62 253 151l-82 30c-29-58-89-103-176-102-144 7-209 112-210 266 2 154 67 261 213 268 88 1 147-43 177-102" id="N"/><path d="M315 12c-80 3-131-36-161-87v236H70v-657h61l23 78c30-50 82-89 161-86 138 6 213 109 213 258C528-98 454 7 315 12zM152-246c-2 104 46 184 141 186 95-2 143-82 141-186 2-106-46-186-141-186s-143 81-141 186" id="O"/><g id="g"><use transform="matrix(0.026666666666666665,0,0,0.026666666666666665,0,0)" xlink:href="#N"/><use transform="matrix(0.026666666666666665,0,0,0.026666666666666665,17.493333333333332,0)" xlink:href="#I"/><use transform="matrix(0.026666666666666665,0,0,0.026666666666666665,32.21333333333333,0)" xlink:href="#O"/><use transform="matrix(0.026666666666666665,0,0,0.026666666666666665,47.306666666666665,0)" xlink:href="#B"/></g><path d="M528-246C526-97 454 6 315 12c-80 3-131-36-161-87L132 0H70v-668h84v250c30-50 82-89 161-86 138 6 211 109 213 258zm-376 0c-2 104 46 184 141 186 95-2 143-82 141-186 2-106-46-186-141-186s-143 81-141 186" id="P"/><path d="M441-136C440 25 181 50 80-42c-22-18-38-42-49-70l81-30c10 54 67 82 127 83 57-2 112-21 117-74-12-107-169-76-246-121-39-23-70-52-69-113 4-175 329-177 377-37l-79 29c-14-38-64-59-113-59-45 0-102 21-100 66 5 70 96 67 157 82 82 21 160 46 158 150" id="Q"/><g id="h"><use transform="matrix(0.026666666666666665,0,0,0.026666666666666665,0,0)" xlink:href="#F"/><use transform="matrix(0.026666666666666665,0,0,0.026666666666666665,8.639999999999999,0)" xlink:href="#z"/><use transform="matrix(0.026666666666666665,0,0,0.026666666666666665,22.666666666666664,0)" xlink:href="#P"/><use transform="matrix(0.026666666666666665,0,0,0.026666666666666665,37.76,0)" xlink:href="#A"/><use transform="matrix(0.026666666666666665,0,0,0.026666666666666665,44.13333333333333,0)" xlink:href="#D"/><use transform="matrix(0.026666666666666665,0,0,0.026666666666666665,58.50666666666666,0)" xlink:href="#Q"/></g><path d="M494-87c-53 56-127 99-231 99C132 9 38-57 38-183c0-114 80-172 171-204-36-43-71-84-74-151-1-91 86-144 182-142 97 3 174 42 174 144-1 95-69 141-140 173l136 144c17-41 30-88 34-142h87c-6 78-29 149-62 204L695 0H576zM319-606c-46 0-96 19-94 66 1 55 50 95 75 125 54-21 106-51 109-116 2-54-40-74-90-75zM128-187C125-72 263-35 361-83c30-14 56-34 79-60L259-334c-69 26-129 61-131 147" id="R"/><use transform="matrix(0.026666666666666665,0,0,0.026666666666666665,0,0)" xlink:href="#R" id="i"/><g id="j"><use transform="matrix(0.026666666666666665,0,0,0.026666666666666665,0,0)" xlink:href="#O"/><use transform="matrix(0.026666666666666665,0,0,0.026666666666666665,15.093333333333332,0)" xlink:href="#A"/><use transform="matrix(0.026666666666666665,0,0,0.026666666666666665,21.466666666666665,0)" xlink:href="#I"/><use transform="matrix(0.026666666666666665,0,0,0.026666666666666665,36.18666666666667,0)" xlink:href="#F"/><use transform="matrix(0.026666666666666665,0,0,0.026666666666666665,44.82666666666667,0)" xlink:href="#Q"/></g><g id="k"><use transform="matrix(0.026666666666666665,0,0,0.026666666666666665,0,0)" xlink:href="#G"/><use transform="matrix(0.026666666666666665,0,0,0.026666666666666665,7.413333333333333,0)" xlink:href="#y"/><use transform="matrix(0.026666666666666665,0,0,0.026666666666666665,21.626666666666665,0)" xlink:href="#F"/><use transform="matrix(0.026666666666666665,0,0,0.026666666666666665,30.266666666666666,0)" xlink:href="#I"/></g><path d="M178 0L10-668h103l130 552 122-552h110l122 552 130-552h103L663 0H549L420-552 291 0H178" id="S"/><g id="l"><use transform="matrix(0.026666666666666665,0,0,0.026666666666666665,0,0)" xlink:href="#S"/><use transform="matrix(0.026666666666666665,0,0,0.026666666666666665,21.786666666666665,0)" xlink:href="#I"/><use transform="matrix(0.026666666666666665,0,0,0.026666666666666665,36.50666666666666,0)" xlink:href="#J"/><use transform="matrix(0.026666666666666665,0,0,0.026666666666666665,45.57333333333332,0)" xlink:href="#E"/></g><path d="M563-466c0 206-188 204-393 200V-1H76v-667c229 3 487-39 487 202zm-96 0c0-149-157-120-297-123v242c138-4 297 29 297-119" id="T"/><path d="M143 0L0-496h90l95 367 99-367h87l98 367 95-367h90L512 0h-77L327-399 219 0h-76" id="U"/><g id="m"><use transform="matrix(0.026666666666666665,0,0,0.026666666666666665,0,0)" xlink:href="#T"/><use transform="matrix(0.026666666666666665,0,0,0.026666666666666665,16.026666666666667,0)" xlink:href="#I"/><use transform="matrix(0.026666666666666665,0,0,0.026666666666666665,30.746666666666666,0)" xlink:href="#U"/><use transform="matrix(0.026666666666666665,0,0,0.026666666666666665,48.18666666666667,0)" xlink:href="#D"/><use transform="matrix(0.026666666666666665,0,0,0.026666666666666665,62.56000000000001,0)" xlink:href="#J"/><use transform="matrix(0.026666666666666665,0,0,0.026666666666666665,71.62666666666667,0)" xlink:href="#O"/><use transform="matrix(0.026666666666666665,0,0,0.026666666666666665,86.72,0)" xlink:href="#I"/><use transform="matrix(0.026666666666666665,0,0,0.026666666666666665,101.44,0)" xlink:href="#G"/><use transform="matrix(0.026666666666666665,0,0,0.026666666666666665,108.85333333333332,0)" xlink:href="#y"/><use transform="matrix(0.026666666666666665,0,0,0.026666666666666665,123.06666666666666,0)" xlink:href="#F"/></g><g id="n"><use transform="matrix(0.026666666666666665,0,0,0.026666666666666665,0,0)" xlink:href="#S"/><use transform="matrix(0.026666666666666665,0,0,0.026666666666666665,22.4,0)" xlink:href="#J"/><use transform="matrix(0.026666666666666665,0,0,0.026666666666666665,31.466666666666665,0)" xlink:href="#G"/><use transform="matrix(0.026666666666666665,0,0,0.026666666666666665,38.879999999999995,0)" xlink:href="#F"/><use transform="matrix(0.026666666666666665,0,0,0.026666666666666665,47.519999999999996,0)" xlink:href="#D"/></g><g id="o"><use transform="matrix(0.026666666666666665,0,0,0.026666666666666665,0,0)" xlink:href="#M"/><use transform="matrix(0.026666666666666665,0,0,0.026666666666666665,13.333333333333332,0)" xlink:href="#I"/><use transform="matrix(0.026666666666666665,0,0,0.026666666666666665,28.05333333333333,0)" xlink:href="#y"/><use transform="matrix(0.026666666666666665,0,0,0.026666666666666665,42.266666666666666,0)" xlink:href="#F"/><use transform="matrix(0.026666666666666665,0,0,0.026666666666666665,50.906666666666666,0)" xlink:href="#D"/><use transform="matrix(0.026666666666666665,0,0,0.026666666666666665,65.28,0)" xlink:href="#y"/><use transform="matrix(0.026666666666666665,0,0,0.026666666666666665,79.49333333333334,0)" xlink:href="#F"/></g><path d="M234-635c-73-10-45 80-51 139h103v67H183V0H99v-429H15v-67h84v-74c-11-124 61-145 187-136v71h-52" id="V"/><path d="M274-432c-82 3-120 70-120 163V0H70v-496h62l22 75c28-45 75-84 149-83 76-1 121 33 143 87 35-55 86-85 167-87 115-2 160 78 160 190V0h-84v-289c-1-82-19-145-106-143-82 3-119 70-119 163V0h-84v-289c-1-82-19-145-106-143" id="W"/><g id="p"><use transform="matrix(0.026666666666666665,0,0,0.026666666666666665,0,0)" xlink:href="#V"/><use transform="matrix(0.026666666666666665,0,0,0.026666666666666665,7.7333333333333325,0)" xlink:href="#I"/><use transform="matrix(0.026666666666666665,0,0,0.026666666666666665,22.453333333333333,0)" xlink:href="#J"/><use transform="matrix(0.026666666666666665,0,0,0.026666666666666665,31.52,0)" xlink:href="#W"/><use transform="matrix(0.026666666666666665,0,0,0.026666666666666665,53.946666666666665,0)" xlink:href="#z"/><use transform="matrix(0.026666666666666665,0,0,0.026666666666666665,67.97333333333333,0)" xlink:href="#F"/></g><path d="M76 0v-668h434v81H170v203h340v81H170V0H76" id="X"/><g id="q"><use transform="matrix(0.026666666666666665,0,0,0.026666666666666665,0,0)" xlink:href="#X"/><use transform="matrix(0.026666666666666665,0,0,0.026666666666666665,14.613333333333332,0)" xlink:href="#I"/><use transform="matrix(0.026666666666666665,0,0,0.026666666666666665,29.333333333333332,0)" xlink:href="#J"/><use transform="matrix(0.026666666666666665,0,0,0.026666666666666665,38.39999999999999,0)" xlink:href="#W"/><use transform="matrix(0.026666666666666665,0,0,0.026666666666666665,60.826666666666654,0)" xlink:href="#z"/><use transform="matrix(0.026666666666666665,0,0,0.026666666666666665,74.85333333333332,0)" xlink:href="#F"/></g><g id="r"><use transform="matrix(0.026666666666666665,0,0,0.026666666666666665,0,0)" xlink:href="#O"/><use transform="matrix(0.026666666666666665,0,0,0.026666666666666665,15.093333333333332,0)" xlink:href="#A"/><use transform="matrix(0.026666666666666665,0,0,0.026666666666666665,21.466666666666665,0)" xlink:href="#I"/><use transform="matrix(0.026666666666666665,0,0,0.026666666666666665,36.18666666666667,0)" xlink:href="#F"/><use transform="matrix(0.026666666666666665,0,0,0.026666666666666665,44.82666666666667,0)" xlink:href="#Q"/></g><path d="M623-335C625-99 491 0 258 0H76v-668h182c232 0 367 97 365 333zm-96 0c0-185-93-257-271-254h-86v510h86c179 4 271-71 271-256" id="Y"/><g id="s"><use transform="matrix(0.026666666666666665,0,0,0.026666666666666665,0,0)" xlink:href="#Y"/><use transform="matrix(0.026666666666666665,0,0,0.026666666666666665,17.2,0)" xlink:href="#z"/><use transform="matrix(0.026666666666666665,0,0,0.026666666666666665,31.226666666666663,0)" xlink:href="#F"/><use transform="matrix(0.026666666666666665,0,0,0.026666666666666665,39.86666666666667,0)" xlink:href="#z"/></g><path d="M382-72c-30 48-74 86-155 84C111 12 68-66 68-180v-317h84v297c-1 87 24 137 104 138 87-2 126-67 126-162v-273h84V0h-63" id="Z"/><g id="t"><use transform="matrix(0.026666666666666665,0,0,0.026666666666666665,0,0)" xlink:href="#Z"/><use transform="matrix(0.026666666666666665,0,0,0.026666666666666665,14.293333333333333,0)" xlink:href="#O"/><use transform="matrix(0.026666666666666665,0,0,0.026666666666666665,29.386666666666663,0)" xlink:href="#E"/><use transform="matrix(0.026666666666666665,0,0,0.026666666666666665,44.42666666666666,0)" xlink:href="#z"/><use transform="matrix(0.026666666666666665,0,0,0.026666666666666665,58.453333333333326,0)" xlink:href="#F"/><use transform="matrix(0.026666666666666665,0,0,0.026666666666666665,67.09333333333332,0)" xlink:href="#D"/></g><g id="u"><use transform="matrix(0.026666666666666665,0,0,0.026666666666666665,0,0)" xlink:href="#Y"/><use transform="matrix(0.026666666666666665,0,0,0.026666666666666665,17.2,0)" xlink:href="#z"/><use transform="matrix(0.026666666666666665,0,0,0.026666666666666665,31.226666666666663,0)" xlink:href="#F"/><use transform="matrix(0.026666666666666665,0,0,0.026666666666666665,39.86666666666667,0)" xlink:href="#z"/></g><g id="v"><use transform="matrix(0.026666666666666665,0,0,0.026666666666666665,0,0)" xlink:href="#D"/><use transform="matrix(0.026666666666666665,0,0,0.026666666666666665,14.373333333333333,0)" xlink:href="#J"/><use transform="matrix(0.026666666666666665,0,0,0.026666666666666665,23.439999999999998,0)" xlink:href="#J"/><use transform="matrix(0.026666666666666665,0,0,0.026666666666666665,32.50666666666666,0)" xlink:href="#I"/><use transform="matrix(0.026666666666666665,0,0,0.026666666666666665,47.22666666666666,0)" xlink:href="#J"/></g><path d="M556-182C550-46 435 12 296 12 168 12 74-46 40-146l87-26c22 67 87 105 173 105 84 0 157-35 157-119 0-100-128-100-219-127-96-27-194-63-192-188 1-185 292-224 420-125 24 18 43 42 57 71l-86 25c-44-95-294-103-294 33 0 102 131 97 216 121 101 29 202 64 197 194" id="aa"/><g id="w"><use transform="matrix(0.026666666666666665,0,0,0.026666666666666665,0,0)" xlink:href="#aa"/><use transform="matrix(0.026666666666666665,0,0,0.026666666666666665,15.893333333333333,0)" xlink:href="#F"/><use transform="matrix(0.026666666666666665,0,0,0.026666666666666665,24.53333333333333,0)" xlink:href="#B"/><use transform="matrix(0.026666666666666665,0,0,0.026666666666666665,35.97333333333333,0)" xlink:href="#A"/><use transform="matrix(0.026666666666666665,0,0,0.026666666666666665,42.346666666666664,0)" xlink:href="#D"/></g></defs></g></svg>