<svg xmlns="http://www.w3.org/2000/svg" xmlns:xlink="http://www.w3.org/1999/xlink" xmlns:lucid="lucid" width="1320" height="459.7"><g transform="translate(-180 -313.51513060262425)" lucid:page-tab-id="0_0"><path d="M660 427.92a6 6 0 0 1 6-6h152a6 6 0 0 1 6 6v111.2a6 6 0 0 1-6 6H666a6 6 0 0 1-6-6z" stroke="#cbc2a3" stroke-width="2" fill="#f7f4e4"/><use xlink:href="#a" transform="matrix(1,0,0,1,672,433.9151306026243) translate(39.553333333333335 28.45833333333333)"/><use xlink:href="#b" transform="matrix(1,0,0,1,672,433.9151306026243) translate(29.873333333333335 61.52499999999999)"/><use xlink:href="#c" transform="matrix(1,0,0,1,672,433.9151306026243) translate(12.126666666666665 94.59166666666665)"/><path d="M1315 427.92a6 6 0 0 1 6-6h152a6 6 0 0 1 6 6v111.2a6 6 0 0 1-6 6h-152a6 6 0 0 1-6-6z" stroke="#cbc2a3" stroke-width="2" fill="#f7f4e4"/><use xlink:href="#d" transform="matrix(1,0,0,1,1326.994993742178,433.9151306026243) translate(28.700000000000003 25.733333333333334)"/><use xlink:href="#e" transform="matrix(1,0,0,1,1326.994993742178,433.9151306026243) translate(21.673333333333332 58.8)"/><use xlink:href="#f" transform="matrix(1,0,0,1,1326.994993742178,433.9151306026243) translate(100.52666666666667 58.8)"/><use xlink:href="#g" transform="matrix(1,0,0,1,1326.994993742178,433.9151306026243) translate(-3.3400000000000034 91.86666666666666)"/><path d="M825.5 483.5h35.45" stroke="#3a414a" fill="none"/><path d="M825.52 484h-.5v-.96h.5z" stroke="#3a414a" stroke-width=".05" fill="#3a414a"/><path d="M875.7 483.5l-14.25 4.65v-9.27z" stroke="#3a414a" fill="#3a414a"/><path d="M878.33 427.92a6 6 0 0 1 6-6h152a6 6 0 0 1 6 6v111.2a6 6 0 0 1-6 6h-152a6 6 0 0 1-6-6z" stroke="#cbc2a3" stroke-width="2" fill="#f7f4e4"/><use xlink:href="#h" transform="matrix(1,0,0,1,890.3316645807259,433.9151306026244) translate(31.513333333333335 28.45833333333333)"/><use xlink:href="#i" transform="matrix(1,0,0,1,890.3316645807259,433.9151306026244) translate(21.833333333333336 61.52499999999999)"/><use xlink:href="#f" transform="matrix(1,0,0,1,890.3316645807259,433.9151306026244) translate(100.36666666666667 61.52499999999999)"/><use xlink:href="#j" transform="matrix(1,0,0,1,890.3316645807259,433.9151306026244) translate(2.0733333333333377 94.59166666666665)"/><use xlink:href="#k" transform="matrix(1,0,0,1,890.3316645807259,433.9151306026244) translate(66.92666666666668 94.59166666666665)"/><use xlink:href="#l" transform="matrix(1,0,0,1,890.3316645807259,433.9151306026244) translate(122.44666666666667 94.59166666666665)"/><path d="M203 408.7a10.35 10.35 0 0 1 0-10.38l34-58.6a10.4 10.4 0 0 1 9-5.2h68a10.4 10.4 0 0 1 9 5.2l34 58.6a10.35 10.35 0 0 1 0 10.4l-34 58.6a10.4 10.4 0 0 1-9 5.2h-68a10.4 10.4 0 0 1-9-5.2z" stroke="#ff8f8f" stroke-width="2" fill="#ffd9d9"/><use xlink:href="#m" transform="matrix(1,0,0,1,205,339.51513060262425) translate(48.05833333333333 57.33333333333333)"/><use xlink:href="#n" transform="matrix(1,0,0,1,205,339.51513060262425) translate(34.27166666666667 90.39999999999999)"/><path d="M203 568.7a10.35 10.35 0 0 1 0-10.38l34-58.6a10.4 10.4 0 0 1 9-5.2h68a10.4 10.4 0 0 1 9 5.2l34 58.6a10.35 10.35 0 0 1 0 10.4l-34 58.6a10.4 10.4 0 0 1-9 5.2h-68a10.4 10.4 0 0 1-9-5.2z" stroke="#ff8f8f" stroke-width="2" fill="#ffd9d9"/><use xlink:href="#o" transform="matrix(1,0,0,1,205,499.51513060262425) translate(16.178333333333335 73.33333333333333)"/><use xlink:href="#p" transform="matrix(1,0,0,1,205,499.51513060262425) translate(77.53833333333334 73.33333333333333)"/><path d="M1004 716.5c-13.25 0-24-10.73-24-24 0-10.6 6.5-19.53 16.58-22.8-.58-31.2 39.42-37.2 55.42-25.2 8-18 48-12 48 6 24-6 48 18 32 48 16 24 0 54-32 42-8 15.62-40 15.62-48 0-16 12-48 6-48-24z" stroke="#febed9" stroke-width="2" fill="#fff0f0"/><use xlink:href="#q" transform="matrix(1,0,0,1,985,637.5151306026243) translate(50.144999999999996 45.95833333333333)"/><use xlink:href="#n" transform="matrix(1,0,0,1,985,637.5151306026243) translate(42.771666666666675 79.02499999999999)"/><path d="M1076.26 630.28v-34.83a6 6 0 0 1 6-6h90.4a6 6 0 0 0 6-6v-12.48" stroke="#1071e5" stroke-width="5" fill="none"/><path d="M1078.73 633l-1.16-.16-3.8-.17v-2.45h4.96z" stroke="#1071e5" stroke-width=".05" fill="#1071e5"/><path d="M1178.67 554.2l4.63 14.27h-9.27z" stroke="#1071e5" stroke-width="5" fill="#1071e5"/><path d="M440 427.92a6 6 0 0 1 6-6h148a6 6 0 0 1 6 6v111.2a6 6 0 0 1-6 6H446a6 6 0 0 1-6-6z" stroke="#cbc2a3" stroke-width="2" fill="#f7f4e4"/><use xlink:href="#r" transform="matrix(1,0,0,1,452,433.91513060262423) translate(25.21333333333334 28.45833333333333)"/><use xlink:href="#s" transform="matrix(1,0,0,1,452,433.91513060262423) translate(42.13333333333334 61.52499999999999)"/><use xlink:href="#t" transform="matrix(1,0,0,1,452,433.91513060262423) translate(28.826666666666668 94.59166666666665)"/><path d="M603.5 483.5H635a6 6 0 0 0 6-6v-90.58a6 6 0 0 1 6-6h744a6 6 0 0 1 6 6v9.14" stroke="#1071e5" stroke-width="5" fill="none"/><path d="M603.56 486H601v-4.96h2.56z" stroke="#1071e5" stroke-width=".05" fill="#1071e5"/><path d="M1397 412.82l-4.64-14.26h9.27z" stroke="#1071e5" stroke-width="5" fill="#1071e5"/><path d="M361.9 403.5h31.3a6 6 0 0 1 6 6v68a6 6 0 0 0 6 6h8.94" stroke="#1071e5" stroke-width="5" fill="none"/><path d="M361.95 406h-2.84l.04-.12.2-1.17.05-1.2-.07-1.18-.2-1.17-.02-.1h2.85z" stroke="#1071e5" stroke-width=".05" fill="#1071e5"/><path d="M430.9 483.5l-14.26 4.65v-9.27z" stroke="#1071e5" stroke-width="5" fill="#1071e5"/><path d="M361.9 563.5h31.3a6 6 0 0 0 6-6v-68a6 6 0 0 1 6-6h8.94" stroke="#1071e5" stroke-width="5" fill="none"/><path d="M361.95 566h-2.84l.04-.12.2-1.17.05-1.2-.07-1.17-.2-1.18-.02-.1h2.85z" stroke="#1071e5" stroke-width=".05" fill="#1071e5"/><path d="M430.9 483.5l-14.26 4.65v-9.27z" stroke="#1071e5" stroke-width="5" fill="#1071e5"/><path d="M1096.66 427.92a6 6 0 0 1 6-6h152a6 6 0 0 1 6 6v111.2a6 6 0 0 1-6 6h-152a6 6 0 0 1-6-6z" stroke="#cbc2a3" stroke-width="2" fill="#f7f4e4"/><g><use xlink:href="#u" transform="matrix(1,0,0,1,1108.6633291614519,433.9151306026244) translate(14.380000000000003 28.45833333333333)"/><use xlink:href="#v" transform="matrix(1,0,0,1,1108.6633291614519,433.9151306026244) translate(78.56666666666666 28.45833333333333)"/><use xlink:href="#w" transform="matrix(1,0,0,1,1108.6633291614519,433.9151306026244) translate(10.52666666666667 61.52499999999999)"/><use xlink:href="#x" transform="matrix(1,0,0,1,1108.6633291614519,433.9151306026244) translate(16.740000000000002 94.59166666666665)"/><use xlink:href="#y" transform="matrix(1,0,0,1,1108.6633291614519,433.9151306026244) translate(43.00666666666666 94.59166666666665)"/></g><path d="M1262.17 483.5h35.44" stroke="#3a414a" fill="none"/><path d="M1262.18 484h-.5v-.96h.5z" stroke="#3a414a" stroke-width=".05" fill="#3a414a"/><path d="M1312.38 483.5l-14.27 4.65v-9.27z" stroke="#3a414a" fill="#3a414a"/><path d="M1043.84 483.5h35.44" stroke="#3a414a" fill="none"/><path d="M1043.85 484h-.5v-.96h.5z" stroke="#3a414a" stroke-width=".05" fill="#3a414a"/><path d="M1094.05 483.5l-14.27 4.65v-9.27z" stroke="#3a414a" fill="#3a414a"/><path d="M1076.26 630.28v-34.83a6 6 0 0 0-6-6H966.33a6 6 0 0 1-6-6v-12.48" stroke="#1071e5" stroke-width="5" fill="none"/><path d="M1078.73 633l-1.16-.16-3.8-.17v-2.45h4.96z" stroke="#1071e5" stroke-width=".05" fill="#1071e5"/><path d="M960.33 554.2l4.64 14.27h-9.27z" stroke="#1071e5" stroke-width="5" fill="#1071e5"/><defs><path d="M178 0L10-668h103l130 552 122-552h110l122 552 130-552h103L663 0H549L420-552 291 0H178" id="z"/><path d="M335-417c-136-2-180 71-181 204V0H70v-496h61l27 92c33-56 90-100 177-100v87" id="A"/><path d="M219-653c1 34-30 64-63 63-33 1-63-30-62-63-1-33 29-63 62-62 34-1 64 28 63 62zM114 0v-429H45v-67h153V0h-84" id="B"/><path d="M188-138c2 51 0 63 51 64h45V0h-63c-93 4-117-31-117-124v-305H20v-67h84v-125h84v125h96v67h-96v291" id="C"/><path d="M478-87C442-31 374 13 281 12 124 9 38-92 38-247s90-257 241-257c158 0 234 116 231 279H128c2 101 61 157 153 163 55 1 92-19 116-49zm-57-205c0-105-107-170-212-126-46 20-76 62-80 126h292" id="D"/><g id="a"><use transform="matrix(0.026666666666666665,0,0,0.026666666666666665,0,0)" xlink:href="#z"/><use transform="matrix(0.026666666666666665,0,0,0.026666666666666665,22.4,0)" xlink:href="#A"/><use transform="matrix(0.026666666666666665,0,0,0.026666666666666665,31.466666666666665,0)" xlink:href="#B"/><use transform="matrix(0.026666666666666665,0,0,0.026666666666666665,38.879999999999995,0)" xlink:href="#C"/><use transform="matrix(0.026666666666666665,0,0,0.026666666666666665,47.519999999999996,0)" xlink:href="#D"/></g><path d="M677-335c0 78-18 144-47 196L753-24l-64 68L572-65c-48 46-118 77-209 77C160 6 50-130 50-335c0-204 110-345 313-345 204 0 309 140 314 345zm-531 0c1 156 72 260 217 268 59 0 107-20 145-59L329-294l64-68 166 156c15-36 22-79 22-129-1-155-72-266-218-266-145 0-216 111-217 266" id="E"/><path d="M382-72c-30 48-74 86-155 84C111 12 68-66 68-180v-317h84v297c-1 87 24 137 104 138 87-2 126-67 126-162v-273h84V0h-63" id="F"/><path d="M378-68c-31 51-85 81-169 80C113 9 38-35 38-131c0-94 73-122 158-145 50-12 110-23 177-30 2-82-30-131-112-131-59-1-100 29-110 77l-81-24c23-72 98-120 190-120 139 1 198 62 198 201 0 106-2 221 17 303h-77zM162-188c-65 43-17 139 65 133 106-8 163-63 153-184-85 10-165 18-218 51" id="G"/><path d="M514-246c0 160-87 258-238 258S38-87 38-246s87-258 238-258 238 98 238 258zm-386 0c0 108 52 184 148 184 97 0 148-76 148-184s-51-184-148-184c-96 0-148 76-148 184" id="H"/><g id="b"><use transform="matrix(0.026666666666666665,0,0,0.026666666666666665,0,0)" xlink:href="#E"/><use transform="matrix(0.026666666666666665,0,0,0.026666666666666665,20.08,0)" xlink:href="#F"/><use transform="matrix(0.026666666666666665,0,0,0.026666666666666665,34.373333333333335,0)" xlink:href="#G"/><use transform="matrix(0.026666666666666665,0,0,0.026666666666666665,48.4,0)" xlink:href="#A"/><use transform="matrix(0.026666666666666665,0,0,0.026666666666666665,57.89333333333333,0)" xlink:href="#C"/><use transform="matrix(0.026666666666666665,0,0,0.026666666666666665,66.53333333333333,0)" xlink:href="#H"/></g><path d="M412-75c-29 52-81 91-161 87C113 6 40-97 38-246c2-149 75-252 213-258 80-4 132 36 161 86v-250h84v481c1 63 3 123 17 187h-79zM132-246c-2 104 46 184 141 186 95-2 143-82 141-186 2-106-46-186-141-186s-143 81-141 186" id="I"/><path d="M467-99C433-40 361 13 269 12 119 7 38-94 38-246c0-153 87-254 240-258 90-2 156 54 187 112l-77 28c-19-37-62-66-116-66-97 6-143 76-143 183 1 106 46 179 143 185 56 1 98-30 118-65" id="J"/><path d="M274-432c-82 3-120 70-120 163V0H70v-496h62l22 75c28-45 75-84 149-83 76-1 121 33 143 87 35-55 86-85 167-87 115-2 160 78 160 190V0h-84v-289c-1-82-19-145-106-143-82 3-119 70-119 163V0h-84v-289c-1-82-19-145-106-143" id="K"/><path d="M285-432c-89 1-131 66-131 163V0H70v-496h62l22 75c30-48 78-85 160-83 119-2 164 76 164 190V0h-84v-289c0-84-20-146-109-143" id="L"/><g id="c"><use transform="matrix(0.026666666666666665,0,0,0.026666666666666665,0,0)" xlink:href="#I"/><use transform="matrix(0.026666666666666665,0,0,0.026666666666666665,15.04,0)" xlink:href="#H"/><use transform="matrix(0.026666666666666665,0,0,0.026666666666666665,29.759999999999998,0)" xlink:href="#J"/><use transform="matrix(0.026666666666666665,0,0,0.026666666666666665,43.093333333333334,0)" xlink:href="#F"/><use transform="matrix(0.026666666666666665,0,0,0.026666666666666665,57.38666666666668,0)" xlink:href="#K"/><use transform="matrix(0.026666666666666665,0,0,0.026666666666666665,79.52,0)" xlink:href="#D"/><use transform="matrix(0.026666666666666665,0,0,0.026666666666666665,93.89333333333333,0)" xlink:href="#L"/><use transform="matrix(0.026666666666666665,0,0,0.026666666666666665,108.10666666666667,0)" xlink:href="#C"/></g><path d="M566-476c-1 124-66 173-185 188L588 0H473L270-281H170V0H76v-668c224 6 498-44 490 192zm-96 2c0-145-164-110-300-115v229c135-5 300 30 300-114" id="M"/><g id="d"><use transform="matrix(0.026666666666666665,0,0,0.026666666666666665,0,0)" xlink:href="#M"/><use transform="matrix(0.026666666666666665,0,0,0.026666666666666665,16.48,0)" xlink:href="#D"/><use transform="matrix(0.026666666666666665,0,0,0.026666666666666665,30.85333333333333,0)" xlink:href="#L"/><use transform="matrix(0.026666666666666665,0,0,0.026666666666666665,45.12,0)" xlink:href="#I"/><use transform="matrix(0.026666666666666665,0,0,0.026666666666666665,60.16,0)" xlink:href="#D"/><use transform="matrix(0.026666666666666665,0,0,0.026666666666666665,74.53333333333333,0)" xlink:href="#A"/></g><path d="M315 12c-80 3-131-36-161-87v236H70v-657h61l23 78c30-50 82-89 161-86 138 6 213 109 213 258C528-98 454 7 315 12zM152-246c-2 104 46 184 141 186 95-2 143-82 141-186 2-106-46-186-141-186s-143 81-141 186" id="N"/><g id="e"><use transform="matrix(0.026666666666666665,0,0,0.026666666666666665,0,0)" xlink:href="#A"/><use transform="matrix(0.026666666666666665,0,0,0.026666666666666665,9.066666666666666,0)" xlink:href="#D"/><use transform="matrix(0.026666666666666665,0,0,0.026666666666666665,23.439999999999998,0)" xlink:href="#N"/><use transform="matrix(0.026666666666666665,0,0,0.026666666666666665,38.53333333333333,0)" xlink:href="#H"/><use transform="matrix(0.026666666666666665,0,0,0.026666666666666665,53.25333333333333,0)" xlink:href="#A"/><use transform="matrix(0.026666666666666665,0,0,0.026666666666666665,62.74666666666668,0)" xlink:href="#C"/></g><path d="M494-87c-53 56-127 99-231 99C132 9 38-57 38-183c0-114 80-172 171-204-36-43-71-84-74-151-1-91 86-144 182-142 97 3 174 42 174 144-1 95-69 141-140 173l136 144c17-41 30-88 34-142h87c-6 78-29 149-62 204L695 0H576zM319-606c-46 0-96 19-94 66 1 55 50 95 75 125 54-21 106-51 109-116 2-54-40-74-90-75zM128-187C125-72 263-35 361-83c30-14 56-34 79-60L259-334c-69 26-129 61-131 147" id="O"/><use transform="matrix(0.026666666666666665,0,0,0.026666666666666665,0,0)" xlink:href="#O" id="f"/><path d="M441-136C440 25 181 50 80-42c-22-18-38-42-49-70l81-30c10 54 67 82 127 83 57-2 112-21 117-74-12-107-169-76-246-121-39-23-70-52-69-113 4-175 329-177 377-37l-79 29c-14-38-64-59-113-59-45 0-102 21-100 66 5 70 96 67 157 82 82 21 160 46 158 150" id="P"/><g id="g"><use transform="matrix(0.026666666666666665,0,0,0.026666666666666665,0,0)" xlink:href="#N"/><use transform="matrix(0.026666666666666665,0,0,0.026666666666666665,15.093333333333332,0)" xlink:href="#A"/><use transform="matrix(0.026666666666666665,0,0,0.026666666666666665,24.159999999999997,0)" xlink:href="#D"/><use transform="matrix(0.026666666666666665,0,0,0.026666666666666665,38.53333333333333,0)" xlink:href="#P"/><use transform="matrix(0.026666666666666665,0,0,0.026666666666666665,51.093333333333334,0)" xlink:href="#D"/><use transform="matrix(0.026666666666666665,0,0,0.026666666666666665,65.46666666666667,0)" xlink:href="#L"/><use transform="matrix(0.026666666666666665,0,0,0.026666666666666665,79.68,0)" xlink:href="#C"/><use transform="matrix(0.026666666666666665,0,0,0.026666666666666665,88.32000000000001,0)" xlink:href="#G"/><use transform="matrix(0.026666666666666665,0,0,0.026666666666666665,102.34666666666668,0)" xlink:href="#C"/><use transform="matrix(0.026666666666666665,0,0,0.026666666666666665,110.98666666666668,0)" xlink:href="#B"/><use transform="matrix(0.026666666666666665,0,0,0.026666666666666665,118.40000000000002,0)" xlink:href="#H"/><use transform="matrix(0.026666666666666665,0,0,0.026666666666666665,133.12,0)" xlink:href="#L"/></g><path d="M618-139C576-47 480 12 353 12 151 12 50-131 50-335c0-206 109-345 311-345 121 0 214 62 253 151l-82 30c-29-58-89-103-176-102-144 7-209 112-210 266 2 154 67 261 213 268 88 1 147-43 177-102" id="Q"/><g id="h"><use transform="matrix(0.026666666666666665,0,0,0.026666666666666665,0,0)" xlink:href="#Q"/><use transform="matrix(0.026666666666666665,0,0,0.026666666666666665,17.493333333333332,0)" xlink:href="#A"/><use transform="matrix(0.026666666666666665,0,0,0.026666666666666665,26.56,0)" xlink:href="#D"/><use transform="matrix(0.026666666666666665,0,0,0.026666666666666665,40.93333333333333,0)" xlink:href="#G"/><use transform="matrix(0.026666666666666665,0,0,0.026666666666666665,54.959999999999994,0)" xlink:href="#C"/><use transform="matrix(0.026666666666666665,0,0,0.026666666666666665,63.599999999999994,0)" xlink:href="#D"/></g><path d="M528-246C526-97 454 6 315 12c-80 3-131-36-161-87L132 0H70v-668h84v250c30-50 82-89 161-86 138 6 211 109 213 258zm-376 0c-2 104 46 184 141 186 95-2 143-82 141-186 2-106-46-186-141-186s-143 81-141 186" id="R"/><path d="M154-138c-3 59 12 66 70 64V0C114 8 70-14 70-124v-543h84v529" id="S"/><g id="i"><use transform="matrix(0.026666666666666665,0,0,0.026666666666666665,0,0)" xlink:href="#C"/><use transform="matrix(0.026666666666666665,0,0,0.026666666666666665,8.639999999999999,0)" xlink:href="#G"/><use transform="matrix(0.026666666666666665,0,0,0.026666666666666665,22.666666666666664,0)" xlink:href="#R"/><use transform="matrix(0.026666666666666665,0,0,0.026666666666666665,37.76,0)" xlink:href="#S"/><use transform="matrix(0.026666666666666665,0,0,0.026666666666666665,44.13333333333333,0)" xlink:href="#D"/><use transform="matrix(0.026666666666666665,0,0,0.026666666666666665,58.50666666666666,0)" xlink:href="#P"/></g><g id="j"><use transform="matrix(0.026666666666666665,0,0,0.026666666666666665,0,0)" xlink:href="#N"/><use transform="matrix(0.026666666666666665,0,0,0.026666666666666665,15.093333333333332,0)" xlink:href="#S"/><use transform="matrix(0.026666666666666665,0,0,0.026666666666666665,21.466666666666665,0)" xlink:href="#H"/><use transform="matrix(0.026666666666666665,0,0,0.026666666666666665,36.18666666666667,0)" xlink:href="#C"/><use transform="matrix(0.026666666666666665,0,0,0.026666666666666665,44.82666666666667,0)" xlink:href="#P"/></g><path d="M143 0L0-496h90l95 367 99-367h87l98 367 95-367h90L512 0h-77L327-399 219 0h-76" id="T"/><path d="M285-432c-89 1-131 66-131 163V0H70v-668h84v247c30-48 78-85 160-83 119-2 164 76 164 190V0h-84v-289c0-84-20-146-109-143" id="U"/><g id="k"><use transform="matrix(0.026666666666666665,0,0,0.026666666666666665,0,0)" xlink:href="#T"/><use transform="matrix(0.026666666666666665,0,0,0.026666666666666665,17.439999999999998,0)" xlink:href="#B"/><use transform="matrix(0.026666666666666665,0,0,0.026666666666666665,24.85333333333333,0)" xlink:href="#C"/><use transform="matrix(0.026666666666666665,0,0,0.026666666666666665,33.49333333333333,0)" xlink:href="#U"/></g><use transform="matrix(0.026666666666666665,0,0,0.026666666666666665,0,0)" xlink:href="#M" id="l"/><path d="M623-335C625-99 491 0 258 0H76v-668h182c232 0 367 97 365 333zm-96 0c0-185-93-257-271-254h-86v510h86c179 4 271-71 271-256" id="V"/><g id="m"><use transform="matrix(0.026666666666666665,0,0,0.026666666666666665,0,0)" xlink:href="#V"/><use transform="matrix(0.026666666666666665,0,0,0.026666666666666665,17.2,0)" xlink:href="#G"/><use transform="matrix(0.026666666666666665,0,0,0.026666666666666665,31.226666666666663,0)" xlink:href="#C"/><use transform="matrix(0.026666666666666665,0,0,0.026666666666666665,39.86666666666667,0)" xlink:href="#G"/></g><g id="n"><use transform="matrix(0.026666666666666665,0,0,0.026666666666666665,0,0)" xlink:href="#F"/><use transform="matrix(0.026666666666666665,0,0,0.026666666666666665,14.293333333333333,0)" xlink:href="#N"/><use transform="matrix(0.026666666666666665,0,0,0.026666666666666665,29.386666666666663,0)" xlink:href="#I"/><use transform="matrix(0.026666666666666665,0,0,0.026666666666666665,44.42666666666666,0)" xlink:href="#G"/><use transform="matrix(0.026666666666666665,0,0,0.026666666666666665,58.453333333333326,0)" xlink:href="#C"/><use transform="matrix(0.026666666666666665,0,0,0.026666666666666665,67.09333333333332,0)" xlink:href="#D"/></g><g id="o"><use transform="matrix(0.026666666666666665,0,0,0.026666666666666665,0,0)" xlink:href="#V"/><use transform="matrix(0.026666666666666665,0,0,0.026666666666666665,17.2,0)" xlink:href="#G"/><use transform="matrix(0.026666666666666665,0,0,0.026666666666666665,31.226666666666663,0)" xlink:href="#C"/><use transform="matrix(0.026666666666666665,0,0,0.026666666666666665,39.86666666666667,0)" xlink:href="#G"/></g><g id="p"><use transform="matrix(0.026666666666666665,0,0,0.026666666666666665,0,0)" xlink:href="#D"/><use transform="matrix(0.026666666666666665,0,0,0.026666666666666665,14.373333333333333,0)" xlink:href="#A"/><use transform="matrix(0.026666666666666665,0,0,0.026666666666666665,23.439999999999998,0)" xlink:href="#A"/><use transform="matrix(0.026666666666666665,0,0,0.026666666666666665,32.50666666666666,0)" xlink:href="#H"/><use transform="matrix(0.026666666666666665,0,0,0.026666666666666665,47.22666666666666,0)" xlink:href="#A"/></g><path d="M556-182C550-46 435 12 296 12 168 12 74-46 40-146l87-26c22 67 87 105 173 105 84 0 157-35 157-119 0-100-128-100-219-127-96-27-194-63-192-188 1-185 292-224 420-125 24 18 43 42 57 71l-86 25c-44-95-294-103-294 33 0 102 131 97 216 121 101 29 202 64 197 194" id="W"/><path d="M37 161V87c53-1 102 6 119-29 8-12 16-32 23-57L0-495h93l122 382 122-382h92L253 22c-28 102-74 152-216 139" id="X"/><g id="q"><use transform="matrix(0.026666666666666665,0,0,0.026666666666666665,0,0)" xlink:href="#W"/><use transform="matrix(0.026666666666666665,0,0,0.026666666666666665,15.893333333333333,0)" xlink:href="#C"/><use transform="matrix(0.026666666666666665,0,0,0.026666666666666665,24.53333333333333,0)" xlink:href="#X"/><use transform="matrix(0.026666666666666665,0,0,0.026666666666666665,35.97333333333333,0)" xlink:href="#S"/><use transform="matrix(0.026666666666666665,0,0,0.026666666666666665,42.346666666666664,0)" xlink:href="#D"/></g><path d="M614-279C612-84 542 12 345 12 149 12 76-85 76-279v-389h94v396c2 130 44 203 175 203s175-73 175-203v-396h94v389" id="Y"/><g id="r"><use transform="matrix(0.026666666666666665,0,0,0.026666666666666665,0,0)" xlink:href="#Y"/><use transform="matrix(0.026666666666666665,0,0,0.026666666666666665,18.4,0)" xlink:href="#N"/><use transform="matrix(0.026666666666666665,0,0,0.026666666666666665,33.49333333333333,0)" xlink:href="#I"/><use transform="matrix(0.026666666666666665,0,0,0.026666666666666665,48.53333333333333,0)" xlink:href="#G"/><use transform="matrix(0.026666666666666665,0,0,0.026666666666666665,62.559999999999995,0)" xlink:href="#C"/><use transform="matrix(0.026666666666666665,0,0,0.026666666666666665,71.19999999999999,0)" xlink:href="#D"/></g><g id="s"><use transform="matrix(0.026666666666666665,0,0,0.026666666666666665,0,0)" xlink:href="#I"/><use transform="matrix(0.026666666666666665,0,0,0.026666666666666665,15.04,0)" xlink:href="#G"/><use transform="matrix(0.026666666666666665,0,0,0.026666666666666665,29.066666666666666,0)" xlink:href="#C"/><use transform="matrix(0.026666666666666665,0,0,0.026666666666666665,37.70666666666666,0)" xlink:href="#G"/></g><g id="t"><use transform="matrix(0.026666666666666665,0,0,0.026666666666666665,0,0)" xlink:href="#P"/><use transform="matrix(0.026666666666666665,0,0,0.026666666666666665,12.559999999999999,0)" xlink:href="#H"/><use transform="matrix(0.026666666666666665,0,0,0.026666666666666665,27.279999999999998,0)" xlink:href="#F"/><use transform="matrix(0.026666666666666665,0,0,0.026666666666666665,41.57333333333333,0)" xlink:href="#A"/><use transform="matrix(0.026666666666666665,0,0,0.026666666666666665,50.64,0)" xlink:href="#J"/><use transform="matrix(0.026666666666666665,0,0,0.026666666666666665,63.97333333333333,0)" xlink:href="#D"/></g><g id="u"><use transform="matrix(0.026666666666666665,0,0,0.026666666666666665,0,0)" xlink:href="#W"/><use transform="matrix(0.026666666666666665,0,0,0.026666666666666665,15.893333333333333,0)" xlink:href="#C"/><use transform="matrix(0.026666666666666665,0,0,0.026666666666666665,24.53333333333333,0)" xlink:href="#X"/><use transform="matrix(0.026666666666666665,0,0,0.026666666666666665,35.97333333333333,0)" xlink:href="#S"/><use transform="matrix(0.026666666666666665,0,0,0.026666666666666665,42.346666666666664,0)" xlink:href="#D"/></g><g id="v"><use transform="matrix(0.026666666666666665,0,0,0.026666666666666665,0,0)" xlink:href="#T"/><use transform="matrix(0.026666666666666665,0,0,0.026666666666666665,17.439999999999998,0)" xlink:href="#B"/><use transform="matrix(0.026666666666666665,0,0,0.026666666666666665,24.85333333333333,0)" xlink:href="#C"/><use transform="matrix(0.026666666666666665,0,0,0.026666666666666665,33.49333333333333,0)" xlink:href="#U"/></g><path d="M70 0v-668h84v395l200-223h101L268-291 480 0H377L212-229l-58 63V0H70" id="Z"/><g id="w"><use transform="matrix(0.026666666666666665,0,0,0.026666666666666665,0,0)" xlink:href="#K"/><use transform="matrix(0.026666666666666665,0,0,0.026666666666666665,22.426666666666666,0)" xlink:href="#G"/><use transform="matrix(0.026666666666666665,0,0,0.026666666666666665,36.45333333333333,0)" xlink:href="#A"/><use transform="matrix(0.026666666666666665,0,0,0.026666666666666665,45.519999999999996,0)" xlink:href="#Z"/><use transform="matrix(0.026666666666666665,0,0,0.026666666666666665,58.18666666666666,0)" xlink:href="#I"/><use transform="matrix(0.026666666666666665,0,0,0.026666666666666665,73.22666666666666,0)" xlink:href="#H"/><use transform="matrix(0.026666666666666665,0,0,0.026666666666666665,87.94666666666666,0)" xlink:href="#T"/><use transform="matrix(0.026666666666666665,0,0,0.026666666666666665,105.38666666666666,0)" xlink:href="#L"/></g><use transform="matrix(0.026666666666666665,0,0,0.026666666666666665,0,0)" xlink:href="#O" id="x"/><g id="y"><use transform="matrix(0.026666666666666665,0,0,0.026666666666666665,0,0)" xlink:href="#E"/><use transform="matrix(0.026666666666666665,0,0,0.026666666666666665,20.08,0)" xlink:href="#F"/><use transform="matrix(0.026666666666666665,0,0,0.026666666666666665,34.373333333333335,0)" xlink:href="#G"/><use transform="matrix(0.026666666666666665,0,0,0.026666666666666665,48.4,0)" xlink:href="#A"/><use transform="matrix(0.026666666666666665,0,0,0.026666666666666665,57.89333333333333,0)" xlink:href="#C"/><use transform="matrix(0.026666666666666665,0,0,0.026666666666666665,66.53333333333333,0)" xlink:href="#H"/></g></defs></g></svg>